Coordinates
version=1
nRows=24
nColumns=24
inDegrees=yes

Units are S.I. units (second, meters, Newtons, ...)
Angles are in degrees.

endheader
time	pelvis_tilt	pelvis_list	pelvis_rotation	pelvis_tx	pelvis_ty	pelvis_tz	hip_flexion_r	hip_adduction_r	hip_rotation_r	knee_angle_r	ankle_angle_r	subtalar_angle_r	mtp_angle_r	hip_flexion_l	hip_adduction_l	hip_rotation_l	knee_angle_l	ankle_angle_l	subtalar_angle_l	mtp_angle_l	lumbar_extension	lumbar_bending	lumbar_rotation
      1.88783333	      2.62362229	      2.26105899	     -3.98718489	      1.46861434	      1.02504514	      0.23986743	     13.02184526	     -5.91010239	     -7.50366219	    -54.19451780	     10.10757560	    -16.59719926	     -6.47156095	      7.71040437	      8.29255532	      2.34034699	    -21.27891931	     12.11624306	    -12.10494459	      0.69231483	     -0.58319759	     -3.99403291	      2.68639180
      1.89200000	      2.58434297	      2.19394160	     -3.87776022	      1.47275152	      1.02539393	      0.23947535	     13.61423314	     -5.77006990	     -7.45593953	    -53.60893711	     10.28803148	    -16.64974431	     -6.49750192	      7.38393807	      8.25797058	      2.46921629	    -21.07295549	     12.21659791	    -12.06772927	      0.68244844	     -0.59810712	     -3.90338980	      2.55291252
      1.89616667	      2.53980106	      2.11104603	     -3.74457898	      1.47684913	      1.02571154	      0.23905307	     14.19418678	     -5.61866349	     -7.43449312	    -52.98454975	     10.43439779	    -16.66474626	     -6.52144518	      7.07779089	      8.20723226	      2.61154597	    -20.89949463	     12.32413063	    -12.04091859	      0.67421739	     -0.62614904	     -3.79496515	      2.39194606
      1.90033333	      2.49524250	      2.02551584	     -3.61581166	      1.48098944	      1.02599952	      0.23865279	     14.75823358	     -5.45953490	     -7.39803461	    -52.33064910	     10.54365908	    -16.66045192	     -6.54507034	      6.76941795	      8.15328177	      2.76263809	    -20.72120042	     12.43155208	    -12.01702569	      0.66527897	     -0.64831767	     -3.68358814	      2.19493832
      1.90450000	      2.41561117	      1.95715615	     -3.47725327	      1.48504061	      1.02618744	      0.23825219	     15.36237540	     -5.31723848	     -7.35506319	    -51.66963242	     10.61299612	    -16.63253520	     -6.60635196	      6.51645689	      8.11758982	      2.92785932	    -20.56634325	     12.51049772	    -12.01820898	      0.63309912	     -0.67740526	     -3.61446897	      1.80353211
      1.90866667	      2.35864971	      1.87593795	     -3.36689659	      1.48917185	      1.02639027	      0.23791159	     15.92408255	     -5.15445776	     -7.28699474	    -50.97256778	     10.69873102	    -16.57070909	     -6.61925248	      6.22833100	      8.06251441	      3.05195430	    -20.39656368	     12.61836084	    -12.01635397	      0.62648373	     -0.67785240	     -3.50815025	      1.73159437
      1.91283333	      2.28969600	      1.78353902	     -3.23173537	      1.49322672	      1.02654018	      0.23754595	     16.48654764	     -4.98177431	     -7.23429195	    -50.24862169	     10.73241703	    -16.49075292	     -6.63951567	      5.97232037	      8.00063649	      3.22325158	    -20.26589456	     12.71710673	    -12.03600307	      0.61196844	     -0.70539969	     -3.39584617	      1.54849331
      1.91700000	      2.19302395	      1.72304311	     -3.10248725	      1.49731561	      1.02661545	      0.23719943	     17.07612313	     -4.84249574	     -7.16341834	    -49.51845316	     10.74678573	    -16.39508373	     -6.66767503	      5.73965166	      7.97320500	      3.40634609	    -20.11037214	     12.78888522	    -12.08633130	      0.58197078	     -0.67160416	     -3.32442492	      1.28264214
      1.92116667	      2.12210338	      1.63771667	     -2.98556024	      1.50135941	      1.02669386	      0.23689442	     17.62352730	     -4.67102832	     -7.07979333	    -48.75648037	     10.75222143	    -16.26069303	     -6.67482919	      5.49433231	      7.91319861	      3.54523099	    -19.98283333	     12.88753851	    -12.11481501	      0.57127047	     -0.68273428	     -3.21693970	      1.17998078
      1.92533333	      2.05182815	      1.55749153	     -2.86116027	      1.50546421	      1.02674295	      0.23659430	     18.15500193	     -4.50464276	     -6.98862888	    -47.97979858	     10.73011997	    -16.11225346	     -6.67775367	      5.24050893	      7.86154743	      3.71024112	    -19.85298584	     12.98463262	    -12.16359633	      0.55990226	     -0.68052918	     -3.11874663	      1.03796963
      1.92950000	      1.96189880	      1.48259358	     -2.73243549	      1.50954098	      1.02674189	      0.23629936	     18.69444724	     -4.34706962	     -6.90402739	    -47.17562485	     10.69143496	    -15.94419570	     -6.67536695	      5.01521229	      7.81647498	      3.89384237	    -19.72982393	     13.06817317	    -12.23214012	      0.54770353	     -0.66197466	     -3.02773684	      0.88917450
      1.93366667	      1.88072353	      1.41033518	     -2.63074714	      1.51361582	      1.02671446	      0.23605690	     19.21842241	     -4.18537495	     -6.79222012	    -46.35525233	     10.62825370	    -15.75145945	     -6.67079556	      4.78232656	      7.76929326	      4.02975058	    -19.60421085	     13.16843737	    -12.29056145	      0.54157147	     -0.63377352	     -2.94088099	      0.77808447
      1.93783333	      1.77796415	      1.34052643	     -2.47007838	      1.51762955	      1.02662390	      0.23575604	     19.75232691	     -4.03628201	     -6.71202052	    -45.51798870	     10.53097593	    -15.59718012	     -6.64089389	      4.58584965	      7.73593257	      4.28226676	    -19.50514558	     13.20552985	    -12.44598146	      0.51521008	     -0.62081789	     -2.87025375	      0.48283650
      1.94200000	      1.70298247	      1.26191855	     -2.35343170	      1.52171826	      1.02656427	      0.23553203	     20.23831170	     -3.86987459	     -6.59863053	    -44.65766282	     10.43364481	    -15.36238091	     -6.63058570	      4.35177407	      7.68006183	      4.42923089	    -19.39768971	     13.31313132	    -12.49287836	      0.51091867	     -0.60845360	     -2.77776883	      0.43007068
      1.94616667	      1.61768653	      1.17834165	     -2.20117361	      1.52575996	      1.02644927	      0.23526550	     20.71670192	     -3.70826989	     -6.51234530	    -43.77091480	     10.32462434	    -15.15732675	     -6.60396266	      4.14957578	      7.62712827	      4.64821544	    -19.32850474	     13.38404766	    -12.61353839	      0.50045290	     -0.60989649	     -2.67285840	      0.29541222
      1.95033333	      1.50045941	      1.12773966	     -2.05576293	      1.52979887	      1.02624220	      0.23502175	     21.23300695	     -3.58225012	     -6.41308383	    -42.88664882	     10.18575814	    -14.95943595	     -6.53940840	      3.96975648	      7.61179661	      4.89306238	    -19.22645766	     13.42191851	    -12.79874407	      0.47931325	     -0.55055347	     -2.62745867	      0.06343587
      1.95450000	      1.42609987	      1.04951438	     -1.91840144	      1.53387221	      1.02610798	      0.23480465	     21.67397837	     -3.42616381	     -6.31119950	    -41.96544106	     10.04497021	    -14.71035784	     -6.50649419	      3.75122135	      7.55729306	      5.07040999	    -19.14389368	     13.51011534	    -12.88532869	      0.47091642	     -0.55954537	     -2.53382899	     -0.00286112
      1.95866667	      1.35797437	      0.99994323	     -1.77774529	      1.53792373	      1.02592943	      0.23461312	     22.10662266	     -3.30066214	     -6.19112270	    -41.04310798	      9.88930404	    -14.45366495	     -6.48868332	      3.52993512	      7.53151802	      5.25118427	    -19.06533065	     13.61432780	    -12.93964240	      0.46889970	     -0.53010108	     -2.48794368	     -0.06557496
      1.96283333	      1.24971993	      0.91617126	     -1.59945394	      1.54197733	      1.02568427	      0.23434696	     22.55437237	     -3.15940350	     -6.14076617	    -40.08136380	      9.72072037	    -14.26474275	     -6.43559811	      3.36117598	      7.47883854	      5.51024965	    -19.01519372	     13.66891123	    -13.12992739	      0.45588625	     -0.52941293	     -2.37639218	     -0.23700870
      1.96700000	      1.16529015	      0.86652591	     -1.43008576	      1.54604948	      1.02546005	      0.23412002	     22.96742175	     -3.04983785	     -6.05457856	    -39.11099668	      9.53014439	    -14.06910102	     -6.31634552	      3.14446015	      7.46396824	      5.80345263	    -18.91106961	     13.68502004	    -13.36935045	      0.42953396	     -0.50265260	     -2.34563057	     -0.48475251
      1.97116667	      1.08113910	      0.81343368	     -1.25729005	      1.55010722	      1.02518581	      0.23388805	     23.37371243	     -2.94604755	     -5.98300562	    -38.14466216	      9.36519695	    -13.80554347	     -6.26673158	      2.95317404	      7.43365322	      6.00767530	    -18.85786337	     13.78346601	    -13.45077382	      0.42090414	     -0.49957775	     -2.27743356	     -0.54070935
      1.97533333	      0.99702697	      0.76243923	     -1.09105018	      1.55419633	      1.02489536	      0.23368728	     23.76547944	     -2.84455330	     -5.91411362	    -37.15561503	      9.18950602	    -13.57590890	     -6.21045994	      2.75550188	      7.40556886	      6.23209603	    -18.79785995	     13.87005547	    -13.56773575	      0.41087312	     -0.49297607	     -2.22334333	     -0.63320792
      1.97950000	      0.93589672	      0.73107325	     -0.93507981	      1.55828694	      1.02462073	      0.23350490	     24.12176742	     -2.76411522	     -5.82943190	    -36.14884896	      9.01367850	    -13.32268070	     -6.17799140	      2.52980038	      7.39425199	      6.42749353	    -18.72573867	     13.97504594	    -13.64033969	      0.40603970	     -0.45794773	     -2.20835188	     -0.70636382
      1.98366667	      0.85848404	      0.69120452	     -0.71106461	      1.56235901	      1.02431023	      0.23323102	     24.46873223	     -2.69823488	     -5.79667136	    -35.11992357	      8.82427934	    -13.19107732	     -6.01216449	      2.32320908	      7.38949080	      6.79052498	    -18.65995169	     13.95525289	    -13.95742344	      0.36587542	     -0.48622526	     -2.17408358	     -1.02059888
